<svg width="79" height="79" viewBox="0 0 79 79" fill="none" xmlns="http://www.w3.org/2000/svg">
<path d="M36.7226 2.56131C28.4369 3.34823 21.3392 6.2953 15.3371 11.4797C8.53261 17.3275 4.28945 25.0887 2.82363 34.2848C2.45331 36.7072 2.45331 42.2619 2.83906 44.7152C3.98085 51.998 6.83534 58.2779 11.4951 63.6937C17.3892 70.5599 25.6287 74.9728 34.8711 76.2535C36.7689 76.5158 42.2465 76.5004 44.1289 76.2381C54.8988 74.7568 64.0486 69.1558 70.0353 60.4072C77.2101 49.915 78.5062 36.6146 73.4916 24.8572C70.6525 18.1916 65.6996 12.3746 59.4043 8.30116C54.5748 5.16893 48.7115 3.16307 42.8174 2.62303C41.2435 2.48416 37.9879 2.4533 36.7226 2.56131ZM41.4287 17.6053C43.1723 18.2533 44.5301 19.7654 44.9775 21.5553C45.209 22.481 45.1935 22.8822 44.3603 32.8961C43.8974 38.6051 43.4654 43.4808 43.4191 43.7432C43.0642 45.4558 41.2744 46.9062 39.4846 46.9062C37.6793 46.9062 35.874 45.4096 35.5808 43.666C35.5191 43.3728 35.1025 38.5125 34.6242 32.8807C33.7293 21.9564 33.7293 21.9564 34.3928 20.4443C35.5037 17.9293 38.7748 16.6178 41.4287 17.6053ZM41.583 52.3221C42.5551 52.7849 43.4808 53.7107 43.9746 54.6982C44.2832 55.3308 44.3603 55.7012 44.3449 56.7812C44.3449 57.8922 44.2832 58.2162 43.9283 58.8951C43.4037 59.9135 42.6322 60.6849 41.6139 61.2096C40.935 61.5644 40.6109 61.6262 39.5 61.6262C38.4199 61.6416 38.0496 61.5644 37.417 61.2558C33.4053 59.2808 33.7447 53.6182 37.957 52.0906C38.9291 51.7357 40.5801 51.8437 41.583 52.3221Z" fill="#EFF3F1"/>
</svg>
