<svg width="79" height="79" viewBox="0 0 79 79" fill="none" xmlns="http://www.w3.org/2000/svg">
<path d="M24.4561 16.2012L23.5303 17.127L26.3848 19.9814L29.2393 22.8359L30.1959 21.8793L31.168 20.9072L28.3598 18.099C26.8014 16.5406 25.5053 15.2754 25.459 15.2754C25.4127 15.2754 24.9652 15.692 24.4561 16.2012Z" fill="#EFF3F1"/>
<path d="M50.5322 18.0527L47.7549 20.8301L48.727 21.7867L49.6836 22.7588L52.4918 19.9506L55.3154 17.127L54.3896 16.2012C53.8805 15.692 53.433 15.2754 53.3867 15.2754C53.3404 15.2754 52.0598 16.5252 50.5322 18.0527Z" fill="#EFF3F1"/>
<path d="M13.7941 17.1733C13.393 17.5436 13.2232 17.8367 13.1615 18.3151C13.0381 19.2408 13.1924 19.6729 13.9176 20.4598L14.5656 21.1541L16.0777 19.642L17.5898 18.1453L17.0807 17.6207C16.4018 16.9109 15.8772 16.6641 15.044 16.6641C14.4731 16.6641 14.2416 16.7567 13.7941 17.1733Z" fill="#EFF3F1"/>
<path d="M62.876 16.8492C62.7063 16.9418 62.3051 17.2658 61.9811 17.559L61.4102 18.1145L62.9068 19.6266L64.4035 21.1387L64.9281 20.6295C65.607 19.9814 65.8848 19.426 65.8848 18.7471C65.8848 17.5436 65.0361 16.6641 63.8943 16.6641C63.5086 16.6641 63.0457 16.7566 62.876 16.8492Z" fill="#EFF3F1"/>
<path d="M16.8955 21.1233L12.7295 25.2584L11.1094 26.0608C9.52012 26.8477 7.31367 27.4649 6.06387 27.4649C5.78613 27.4649 5.55469 27.5112 5.55469 27.5729C5.55469 27.6346 5.94043 28.4524 6.40332 29.3936C8.67148 33.9145 12.3283 37.5867 16.8955 39.9012L18.9014 40.9196L19.0711 39.6389C19.3643 37.417 19.9969 35.658 21.077 33.9916C21.401 33.4979 23.4068 31.3377 25.5207 29.193L29.3781 25.2893L25.2275 21.1387L21.0615 16.9727L16.8955 21.1233Z" fill="#EFF3F1"/>
<path d="M53.7725 21.1387L49.6219 25.2892L53.4793 29.193C55.5932 31.3377 57.599 33.4978 57.9231 33.9916C59.0031 35.6426 59.6358 37.417 59.9289 39.608L60.0986 40.8732L61.1787 40.3795C63.9252 39.1297 66.0854 37.6176 68.2764 35.3957C70.3131 33.3281 72.2572 30.4891 73.1213 28.2672L73.4453 27.4648H72.9361C71.7172 27.4648 69.5262 26.8476 67.9061 26.0607L66.2705 25.2584L62.1045 21.1232L57.9231 16.9726L53.7725 21.1387Z" fill="#EFF3F1"/>
<path d="M1.78986 27.8043C3.50255 35.226 9.47384 41.7373 16.7875 44.1135C17.5436 44.3604 18.4848 44.6073 18.886 44.669L19.6111 44.777L19.5031 44.3449C19.0865 42.6477 19.1637 42.7403 17.667 42.1231C14.7817 40.9504 12.1123 39.1297 9.64357 36.6455C7.19025 34.1768 5.43126 31.5846 4.22775 28.653L3.71857 27.3877L2.82365 27.1254C1.51212 26.7242 1.54298 26.7088 1.78986 27.8043Z" fill="#EFF3F1"/>
<path d="M76.0992 27.1254L75.2814 27.3877L74.7723 28.653C73.5842 31.5383 71.8252 34.1614 69.4336 36.5684C66.9185 39.1143 64.6658 40.6881 61.6416 41.9996C59.8055 42.7865 59.9135 42.6785 59.4969 44.3758L59.3889 44.777L60.1141 44.669C60.5152 44.6073 61.4564 44.3604 62.2125 44.1135C69.5107 41.7373 75.5129 35.226 77.2101 27.8043C77.457 26.6934 77.4724 26.7088 76.0992 27.1254Z" fill="#EFF3F1"/>
<path d="M26.8014 30.3656L25.3047 31.8623L30.3193 36.877L35.334 41.8916L36.8307 40.3795L38.3428 38.8828L33.3281 33.8682L28.3135 28.8535L26.8014 30.3656Z" fill="#EFF3F1"/>
<path d="M34.8248 44.7152C17.6979 61.8422 18.4848 60.9781 18.8397 62.2588C18.9168 62.5365 19.2254 62.984 19.534 63.2463C19.966 63.632 20.2129 63.7246 20.7684 63.7246C21.1541 63.7246 21.6479 63.632 21.8793 63.5086C22.1108 63.3852 29.3627 56.2104 38.0033 47.5697L53.6953 31.8623L52.1832 30.3502L50.6865 28.8535L34.8248 44.7152Z" fill="#EFF3F1"/>
<path d="M42.123 45.749L40.6572 47.2148L48.6807 55.2537C53.0936 59.6666 56.8893 63.3852 57.1207 63.5086C57.3521 63.632 57.8459 63.7246 58.2316 63.7246C59.5277 63.7246 60.4689 62.4748 60.1758 61.1633C60.0678 60.6695 58.8334 59.3734 51.89 52.4301C47.4154 47.9555 43.7123 44.2832 43.666 44.2832C43.6197 44.2832 42.9254 44.9467 42.123 45.749Z" fill="#EFF3F1"/>
</svg>
