<svg width="368" height="127" viewBox="0 0 368 127" fill="none" xmlns="http://www.w3.org/2000/svg">
<path d="M171.733 8.93331C166.267 14.8 163.333 19.6 159.467 28.8C156 37.2 153.2 41.8666 150.533 43.8666C145.067 47.8666 134.667 62.5333 134.667 66.2666C134.667 67.8666 134 70.6666 133.2 72.5333C131.867 75.2 131.2 75.6 129.2 74.5333C127.467 73.6 124.267 73.8666 118.533 75.3333C106.933 78.4 106.4 77.0666 113.733 64.4C121.2 51.6 126.4 46.5333 136.4 42C140.533 40 144 37.8666 144 37.2C144 31.7333 116.4 46 107.2 56.1333C100.933 63.2 92 83.6 92 90.9333C92 92.2666 93.2 93.8666 94.8 94.4C97.2 95.3333 97.3333 95.7333 95.6 97.0666C94 98.4 92.8 98.4 90.1333 97.2C85.4667 95.0666 84.8 96.1333 87.4667 101.867C90 107.067 92.2667 107.733 99.3333 105.2C104.4 103.333 110.133 104.533 111.867 107.733C112.533 108.933 113.467 112.267 114 115.067C114.8 118.933 114.533 120 112.933 120C111.867 120 110.267 119.067 109.333 118C107.2 115.467 99.0667 115.467 96.5333 118C93.2 121.333 90.6667 120.4 90.6667 116C90.6667 113.733 89.8667 109.867 88.8 107.333C84.1333 96.4 60.4 98.4 50.4 110.533C47.3333 114.133 44.6667 114.133 42.1333 110.4C38.5333 105.333 39.6 102.933 46.4 99.3333C53.7333 95.4666 58.6667 91.4666 58.6667 89.4666C58.6667 87.6 58.8 87.6 52.1333 90C41.2 93.8666 29.3333 100.133 29.3333 102.133C29.3333 104.667 34.5333 115.067 36.5333 116.267C40.1333 118.667 39.8667 116.8 36 110C33.7333 106 32.4 102.667 33.2 102.667C33.8667 102.667 34.8 103.733 35.3333 105.2C35.7333 106.533 38.4 110.133 41.2 113.2C44 116.267 46 118.933 45.4667 119.2C43.4667 120.533 34.6667 119.333 34.6667 117.867C34.6667 116.933 31.4667 114 27.6 111.467C23.6 108.8 19.3333 105.467 18 104C15.6 101.333 15.6 101.2 19.3333 97.3333C21.4667 95.2 22.8 92.9333 22.4 92.5333C21.4667 91.6 7.59999 95.3333 2.93333 97.6C-0.933341 99.6 -0.266674 103.2 5.59999 112.667C11.7333 122.533 14.6667 125.333 18.5333 125.2H22L18.6667 123.867C16 122.8 15.7333 122.267 17.3333 121.333C18.5333 120.533 18.6667 120 17.7333 120C16.4 120 2.66666 103.067 2.66666 101.2C2.66666 100.4 12 97.3333 14.1333 97.3333C14.8 97.3333 14.2667 98 13.0667 98.8C10.9333 100 10.9333 100.267 13.0667 102.933C16.9333 107.6 20.8 111.333 26.8 116.267C32.5333 120.933 32.8 120.933 48.8 121.867C68.5333 122.933 80.6667 121.867 78.5333 119.2C77.7333 118.267 77.3333 116.667 77.6 115.733C78.4 113.6 73.8667 109.467 69.7333 108.533C68 108 64.4 108.133 61.6 108.533C56.9333 109.333 56.8 109.2 59.3333 107.333C66 102.133 81.0667 102 84.6667 107.2C85.7333 108.667 86.6667 112.533 86.6667 115.6C86.6667 120.533 87.0667 121.333 89.4667 121.333C91.8667 121.333 92 121.6 90.6667 123.333C89.2 125.067 89.6 125.333 93.4667 125.2C96 125.2 97.2 124.8 96.4 124.4C93.8667 123.467 94.2667 121.333 97.0667 121.333C98.4 121.333 100.133 120.667 100.8 120C101.733 119.067 103.733 119.2 107.067 120.667C109.867 121.733 113.467 122.4 115.2 121.867C118.133 121.2 118.4 120.533 117.733 116.267C116.8 109.733 113.467 104.267 108.933 101.6C105.6 99.4666 104.933 99.4666 99.0667 101.6C91.2 104.4 88.9333 103.333 95.6 99.8666C104.667 95.2 112.8 96.8 121.867 105.067C126.4 109.067 127.333 109.467 127.733 107.6C128.133 105.333 128.4 105.333 131.467 107.333C135.867 110.133 138.133 109.2 146 101.2C156 90.9333 158.133 90.6666 152 100.267C149.067 104.8 146.267 110.133 145.867 112C145.467 113.867 144.667 116.667 144 118.4C142.933 120.933 143.2 121.333 145.467 121.333C147.467 121.333 148 122 147.467 123.333C146.933 124.933 147.867 125.333 152 125.333C155.867 125.333 157.333 124.8 157.333 123.333C157.333 121.733 159.067 121.333 165.333 121.333C171.6 121.333 173.333 121.733 173.333 123.333C173.333 125.067 175.733 125.333 188.4 125.067C196.533 124.933 201.067 124.667 198.267 124.4C191.067 123.6 193.6 121.333 201.6 121.333C206.933 121.333 208.133 121.733 207.467 123.333C206.533 126 214.133 126 216.8 123.333C218 122.267 220.4 121.333 222.267 121.333C224.8 121.333 225.333 120.933 224.4 119.733C223.6 118.8 222.267 115.2 221.467 111.867C220.533 108.4 218 103.067 215.867 99.8666C213.867 96.6666 212.4 93.8666 212.667 93.6C213.467 92.8 225.333 102.533 225.333 104C225.333 104.533 226.8 106 228.667 107.2C231.733 109.2 232.267 109.2 236.133 107.2C239.467 105.6 240.533 105.467 241.333 106.8C242.133 107.867 243.6 107.2 246.8 104.133C253.067 98.2666 260 96.4 267.067 98.5333C270.133 99.4666 274 100.267 275.733 100.267C277.333 100.267 278.667 100.8 278.667 101.467C278.667 103.867 274.933 104.133 270.8 102.133C262.133 97.6 255.067 101.067 251.467 111.6C248.667 119.733 248.8 121.333 252 121.333C253.467 121.333 254.667 122.267 254.667 123.333C254.667 124.667 255.867 125.333 258.4 125.2C261.867 124.933 261.867 124.933 258.667 124.4C255.467 123.733 255.6 123.733 259.867 121.867C265.067 119.733 270.8 120.667 269.733 123.467C269.333 124.533 269.867 125.333 271.2 125.333C272.4 125.333 273.733 124.4 274.133 123.333C274.667 122.267 276.4 121.333 278.267 121.333C280.933 121.333 281.333 120.8 280.667 118.667C279.733 115.733 282.133 105.867 284.133 104.533C287.333 102.667 301.2 103.867 307.333 106.533C314.533 109.733 314.8 111.333 307.867 109.333C300.533 107.2 296.533 107.733 292.133 111.467C287.2 115.467 286.4 121.333 290.667 121.333C293.6 121.333 294.267 123.333 291.733 124.4C290.8 124.8 294.933 125.2 301.067 125.2C307.2 125.333 311.867 124.8 311.467 124.133C310.4 122.533 318 121.2 328.133 121.467L336.667 121.6L344.667 113.733C355.467 102.933 357.6 100.267 355.6 99.6C354.667 99.3333 354.4 98.5333 354.933 98C356.133 96.8 365.333 99.8666 365.333 101.467C365.333 102.933 354 117.2 350.933 119.733C349.333 120.933 349.2 121.333 350.667 121.333C351.867 121.333 351.6 122 349.867 123.333C347.333 125.2 347.467 125.2 350.267 125.333C352.4 125.333 354.933 123.067 358.933 117.6C370.667 101.867 370.667 98.5333 358.933 95.3333C354.8 94.1333 349.867 92.6666 348.133 91.8666C343.2 89.8666 343.067 91.6 348 96.6666L352.4 101.2L348.267 104.933C346 106.933 341.467 111.2 338.267 114.267C329.6 122.4 326.4 122.133 332.8 113.733C334.667 111.333 335.6 109.333 335.067 109.333C334.533 109.333 334.8 108.8 335.867 108.133C336.933 107.467 338 105.467 338.267 103.6C338.8 99.8666 336.667 98.6666 311.067 88.4C310.133 88 309.333 88.2666 309.333 89.0666C309.333 89.8666 313.467 93.2 318.667 96.6666C329.6 104 330.267 104.8 327.467 107.867C326.267 109.2 325.733 110.667 326.267 111.067C326.667 111.6 326.4 112 325.467 112C324.533 112 324.267 112.533 324.667 113.333C326.267 116 320.667 112.8 316.4 108.667C309.067 101.467 292.667 98.2666 283.6 102C280.667 103.2 277.867 108.533 276.667 115.067C275.6 120.4 272.4 121.733 269.333 118C267.2 115.467 262.133 115.467 260 118C259.067 119.067 257.2 120 255.733 120C253.467 120 253.2 119.333 253.867 116.267C255.6 109.2 257.6 105.733 260.8 104C263.6 102.4 264.8 102.533 268.667 104.4C271.333 105.6 274.4 106.667 275.733 106.667C278.267 106.533 281.733 102.4 283.333 97.6C284.133 94.6666 284 94.5333 281.067 95.4666C277.6 96.6666 274.133 96.6666 265.2 95.3333C258.133 94.2666 250 96.2666 246.267 100.133C244.933 101.6 242.8 102.667 241.333 102.667C240 102.667 237.2 103.333 235.333 104.267C232.133 105.733 231.467 105.467 225.733 99.6C222.4 96.1333 216.4 91.6 212.267 89.3333C201.067 83.2 197.867 84.2666 205.467 91.4666C210.8 96.5333 216.8 107.333 218.4 114.4L219.733 120H214C208.667 120 208.267 119.733 207.6 115.733C207.2 113.333 204.8 107.867 202.133 103.467C196.933 94.9333 190.667 79.0666 188.133 68.6666C185.067 55.8666 182.4 55.6 180 67.7333C177.867 78.1333 170.8 95.2 164.8 104.533C162.133 108.8 159.6 114 159.067 116.133C158.4 119.6 157.867 120 153.067 120C147.867 120 147.733 120 148.667 115.733C150.133 108.667 156 99.0666 162.933 92.2666C166.4 88.8 169.333 85.4666 169.333 84.9333C169.333 82.8 160.667 85.6 154.667 89.7333C151.333 91.8666 145.867 96.4 142.4 99.7333C136.533 105.333 135.867 105.733 132.667 104.267C130.8 103.333 128 102.667 126.667 102.667C125.2 102.667 123.067 101.6 121.733 100.133C118.667 97.0666 111.733 94.6666 105.467 94.6666L100.667 94.5333L106 89.8666C108.8 87.3333 112.533 84.9333 114.267 84.5333C118 83.6 121.867 84.8 120.667 86.6666C118.933 89.3333 123.333 87.8666 126.8 84.5333L130.4 81.0666L131.333 88.2666C132.533 96.6666 134.133 100.533 135.2 97.3333C135.6 96.2666 136.133 93.4666 136.533 91.3333C137.6 84.9333 140 77.4666 141.333 76.6666C142 76.2666 143.333 77.2 144.267 78.5333C146.667 81.8666 153.067 84.4 156.8 83.4666C160.8 82.4 164.533 74.2666 163.467 68.6666C162.8 65.3333 163.067 63.8666 164.533 63.0666C165.733 62.4 167.467 57.4666 168.8 51.3333C171.2 39.0666 173.333 35.4666 173.333 43.6C173.333 50.5333 175.867 52.6666 184 52.6666C192 52.6666 194.667 50.5333 194.8 43.4666L194.933 38L196.8 42.5333C197.867 44.9333 199.333 50 200.133 53.7333C200.8 57.4666 202.267 61.4666 203.467 62.8C204.933 64.4 205.333 66.4 204.667 69.2C202.933 77.0666 210.667 85.3333 217.867 83.2C219.333 82.8 222 80.9333 223.467 79.0666C226.267 75.8666 226.4 75.7333 227.733 78.1333C228.4 79.6 229.733 84 230.667 88C233.333 99.6 233.333 99.7333 234.667 97.3333C235.2 96.2666 236.133 92.8 236.667 89.7333C237.867 82.5333 238.8 81.8666 242.667 86C246.4 90 248 90.2666 248 86.6666C248 81.8666 255.333 84 266.4 92C268.4 93.3333 271.2 94.6666 272.667 94.9333C275.067 95.3333 275.333 94.6666 275.2 89.0666C275.2 82.5333 274.8 81.6 268.933 69.3333C262.667 56.4 248.8 43.8666 235.333 38.8C221.2 33.4666 217.6 36.5333 231.333 42.1333C235.733 44 241.733 47.7333 244.667 50.6666C250.133 56.1333 261.333 75.2 259.733 76.6666C259.333 77.2 255.067 76.6666 250.4 75.4666C245.867 74.4 240.533 73.6 238.8 73.7333C236 74 235.2 73.0666 233.467 67.3333C230.667 58.4 225.333 50.6666 218.133 44.5333C213.467 40.6666 211.333 37.6 208.667 30.2666C204.8 19.7333 201.867 15.0666 194.133 6.93331C189.733 2.39997 187.867 1.33331 183.867 1.33331C179.733 1.33331 178 2.39997 171.733 8.93331ZM193.2 11.4666C199.2 18.1333 202.267 22.8 205.067 30.2666C209.2 40.6666 209.6 41.4666 217.6 48.1333C222.667 52.2666 230.667 64.6666 230.667 68.2666C230.667 69.2 231.733 72.1333 233.067 74.6666C234.4 77.6 235.067 80.9333 234.667 83.3333C234 87.2 233.867 87.0666 231.333 80C228.533 72.2666 224.933 69.7333 223.333 74.6666C222.4 77.7333 216.267 81.2 213.333 80.2666C209.867 79.2 208 75.7333 208 70.4C208 65.4666 208.133 65.3333 212.667 65.3333C216.533 65.3333 217.333 64.8 217.333 62.5333C217.333 58.8 214.933 54.6666 212.8 54.6666C211.733 54.6666 209.867 56.2666 208.667 58.2666C205.867 62.4 205.067 61.3333 202.8 50.6666C201.2 43.3333 195.733 33.3333 193.333 33.3333C192.533 33.3333 192 36.2666 192 39.7333C192 47.6 190.4 49.3333 183.2 49.3333C177.333 49.3333 176 47.7333 176 40.2666C176 38.6666 175.2 37.3333 174.4 37.3333C173.2 37.3333 173.333 36.9333 174.667 36C175.733 35.3333 176.133 34.2666 175.467 33.7333C173.733 32 168.267 39.8666 166.667 46.5333C165.867 49.8666 164.533 54.9333 163.867 57.8666L162.533 63.0666L158.533 58.5333C154.8 54.1333 154.667 54.1333 152.667 56.5333C151.6 58 150.667 60.5333 150.667 62.2666C150.667 64.8 151.333 65.3333 154.667 65.3333C160.133 65.3333 162.4 70 159.867 75.4666C156.933 81.6 147.867 81.4666 145.067 75.3333C142.8 70.2666 140.133 71.3333 136.667 78.9333C132.4 88.5333 132.267 82.5333 136.533 70.4C140.267 59.7333 143.733 54.6666 152.133 46.6666C157.2 42 159.467 38.2666 162.667 30C166 21.3333 168.4 17.7333 175.067 10.9333C179.6 6.39997 183.733 2.66664 184.133 2.66664C184.667 2.66664 188.667 6.66664 193.2 11.4666ZM111.2 62.2666C103.2 75.6 103.067 80 110.8 80C114.667 80 114.267 80.4 105.867 86C101.067 89.3333 96.5333 92 95.8667 92C92 92 102.8 65.8666 109.867 58.1333C115.067 52.6666 115.6 54.8 111.2 62.2666ZM260.533 61.6C265.6 68.4 272 82.8 272 87.7333V92.1333L266 88C255.067 80.5333 246 77.8666 245.067 82.1333C244.667 84 244.267 83.8666 241.733 81.6C236.533 77.2 238 76.1333 247.067 78.1333C251.6 79.0666 256.933 79.8666 259.067 80C262.267 80 262.667 79.4666 262.667 75.8666C262.667 73.4666 260.933 68.6666 258.667 65.0666C256.533 61.6 254.667 58.4 254.667 58C254.667 56 257.6 57.8666 260.533 61.6ZM184.933 68.2666C185.067 72.6666 195.067 98.6666 199.2 105.6C205.2 115.6 205.6 118 201.467 118C198.667 118 198 116.933 196 110C192.267 96.6666 189.867 94.6666 180 96C176.933 96.4 176.267 97.3333 172.533 108C168.533 119.733 167.6 121.067 164.667 118.667C162.133 116.533 162.933 113.733 168.667 104.8C170.933 101.067 174.933 92.1333 177.467 85.0666C180.4 76.6666 182.267 72.6666 183.067 73.7333C183.733 74.6666 183.867 74 183.467 71.8666C183.067 70 183.067 68 183.6 67.4666C184.8 66.4 184.933 66.4 184.933 68.2666ZM128.4 76.9333C129.467 77.8666 125.6 82.6666 123.6 82.6666C122.933 82.6666 122.667 81.7333 123.067 80.8C123.6 79.4666 123.2 79.0666 121.867 79.6C120.933 80 120 79.6 120 78.9333C120 78.1333 121.333 77.2 123.067 76.9333C124.667 76.6666 126.4 76.2666 126.8 76.1333C127.2 76.1333 128 76.4 128.4 76.9333ZM192 108.8C193.067 113.067 194.533 117.467 195.067 118.267C195.867 119.6 193.467 120 184 120C174.533 120 172.133 119.6 172.933 118.267C173.467 117.467 174.933 113.067 176 108.667C177.6 102.667 178.933 100.267 181.333 99.0666C186.4 96.5333 189.6 99.4666 192 108.8ZM72.4 114.4C76 118.4 72.8 120 61.0667 120C52.5333 120 50.6667 119.6 50.6667 118C50.6667 112.8 68.4 109.867 72.4 114.4ZM309.067 113.467C314.4 114.667 318.667 117.2 318.667 119.2C318.667 119.6 312.667 120 305.333 120C298 120 292 119.6 292 118.933C292 118.4 292.933 116.533 294.133 114.933C296.4 111.733 300 111.333 309.067 113.467Z" fill="#42A2DF"/>
<path d="M185.067 80.2666C184.8 82.1333 184.933 84.6666 185.6 85.7333C186.933 88.4 184.4 90.2666 182.267 88.1333C181.333 87.2 181.333 86.6666 182.133 86.6666C183.333 86.6666 183.467 84.1333 182.667 79.3333C182.533 78.5333 181.867 80.1333 181.2 82.6666C179.733 88.5333 180.533 90.6666 184 90.6666C187.6 90.6666 188.267 88.4 186.933 82C185.867 77.0666 185.733 76.9333 185.067 80.2666Z" fill="#42A2DF"/>
</svg>
